<svg width="20" height="20" viewBox="0 0 20 20" fill="none" xmlns="http://www.w3.org/2000/svg">
<path d="M0 8.0892C0 3.62899 3.62899 0 8.0892 0C12.5494 0 16.1784 3.62899 16.1784 8.0892C16.1784 9.93411 15.5601 11.627 14.516 12.9853L19.4729 17.9726C19.6858 18.1855 19.8074 18.4795 19.8074 18.8039C19.8074 19.483 19.331 20 18.6417 20C18.3173 20 18.0132 19.8885 17.78 19.6553L12.7927 14.6579C11.4648 15.6107 9.85302 16.1784 8.0892 16.1784C3.62899 16.1784 0 12.5494 0 8.0892ZM1.7334 8.0892C1.7334 11.5966 4.58186 14.445 8.0892 14.445C11.5966 14.445 14.445 11.5966 14.445 8.0892C14.445 4.58186 11.5966 1.7334 8.0892 1.7334C4.58186 1.7334 1.7334 4.58186 1.7334 8.0892Z" fill="white"/>
</svg>
