<svg width="23" height="19" viewBox="0 0 23 19" fill="none" xmlns="http://www.w3.org/2000/svg">
<path d="M12.2143 19C11.8621 19 11.5685 18.886 11.3337 18.6581C11.1058 18.4302 10.9918 18.1401 10.9918 17.7879V13.8304H10.6914C9.35842 13.8304 8.17739 13.9617 7.14831 14.2241C6.11923 14.4866 5.21101 14.9389 4.42366 15.5812C3.63631 16.2166 2.9422 17.1007 2.34133 18.2334C2.16176 18.5649 1.95802 18.7755 1.7301 18.8653C1.50909 18.9551 1.28808 19 1.06707 19C0.790803 19 0.542166 18.8791 0.321156 18.6374C0.107052 18.4026 0 18.0607 0 17.6118C0 15.6987 0.207197 13.9789 0.621592 12.4526C1.04289 10.9193 1.68521 9.61051 2.54853 8.52617C3.41876 7.44184 4.52726 6.61305 5.87405 6.0398C7.22774 5.46656 8.83352 5.17993 10.6914 5.17993H10.9918V1.2639C10.9918 0.918575 11.1058 0.621592 11.3337 0.372955C11.5685 0.124318 11.869 0 12.235 0C12.4836 0 12.7081 0.0587059 12.9084 0.176118C13.1156 0.286623 13.3573 0.473101 13.6336 0.735551L21.8075 8.38113C22.0078 8.56761 22.1459 8.75754 22.2219 8.95093C22.2979 9.14431 22.3359 9.32734 22.3359 9.5C22.3359 9.66576 22.2979 9.84533 22.2219 10.0387C22.1459 10.2321 22.0078 10.422 21.8075 10.6085L13.6336 18.3266C13.385 18.5614 13.1467 18.7306 12.9188 18.8342C12.6977 18.9447 12.4629 19 12.2143 19ZM12.8048 16.7726C12.867 16.7726 12.9257 16.7415 12.9809 16.6794L20.3675 9.69684C20.4089 9.6554 20.4366 9.62087 20.4504 9.59324C20.4642 9.55871 20.4711 9.52763 20.4711 9.5C20.4711 9.43784 20.4366 9.37223 20.3675 9.30316L12.9913 2.22737C12.9636 2.20665 12.9326 2.18939 12.898 2.17557C12.8704 2.15485 12.8428 2.14449 12.8152 2.14449C12.7116 2.14449 12.6598 2.19284 12.6598 2.28953V6.4024C12.6598 6.63032 12.5458 6.74427 12.3179 6.74427H10.9297C9.50691 6.74427 8.27408 6.9273 7.23119 7.29335C6.1883 7.65249 5.30771 8.15322 4.58942 8.79553C3.87114 9.43093 3.28753 10.1665 2.8386 11.0022C2.39658 11.8379 2.06852 12.7323 1.85442 13.6854C1.64031 14.6316 1.51254 15.5916 1.4711 16.5654C1.4711 16.6414 1.49527 16.6794 1.54362 16.6794C1.57125 16.6794 1.59197 16.6725 1.60578 16.6587C1.61959 16.6379 1.63341 16.6103 1.64722 16.5758C2.255 15.2774 3.33933 14.2345 4.90022 13.4471C6.46111 12.6598 8.47092 12.2661 10.9297 12.2661H12.3179C12.5458 12.2661 12.6598 12.38 12.6598 12.608V16.6172C12.6598 16.7208 12.7081 16.7726 12.8048 16.7726Z" fill="white"/>
</svg>
