<svg width="24" height="24" viewBox="0 0 24 24" fill="none" xmlns="http://www.w3.org/2000/svg">
<path d="M7.49425 15.6719L10.9849 9.69654L10.9849 16.0067H7.70574C7.66688 16.0012 7.63028 15.9879 7.59832 15.9682C7.56073 15.9451 7.53083 15.9141 7.51014 15.8787C7.48947 15.8434 7.47866 15.8049 7.47741 15.7667C7.47636 15.7349 7.48191 15.7027 7.49425 15.6719Z" fill="white"/>
<path d="M16.2951 16.0067H13.0156L13.0156 9.69632L16.5066 15.6718C16.5188 15.7023 16.5244 15.7345 16.5233 15.7667C16.522 15.8054 16.5112 15.8438 16.4907 15.8787C16.4702 15.9138 16.4403 15.9449 16.4024 15.9682C16.3703 15.9879 16.3338 16.0012 16.2951 16.0067Z" fill="white"/>
<path fill-rule="evenodd" clip-rule="evenodd" d="M12 24C18.6274 24 24 18.6274 24 12C24 5.37258 18.6274 0 12 0C5.37258 0 0 5.37258 0 12C0 18.6274 5.37258 24 12 24ZM12.877 5.43317C12.6949 5.12155 12.3611 4.92998 12.0002 4.92999C11.6393 4.92999 11.3055 5.12157 11.1235 5.4332L5.71765 14.6871C5.70656 14.706 5.69609 14.7254 5.68626 14.745C5.51776 15.0819 5.43532 15.4558 5.44773 15.8334C5.46015 16.211 5.56696 16.5786 5.75702 16.9037C5.94707 17.2288 6.21451 17.5014 6.53502 17.6984C6.85538 17.8953 7.21886 18.0105 7.59314 18.0352C7.61543 18.0367 7.63777 18.0375 7.66011 18.0375H16.3407C16.3631 18.0375 16.3854 18.0367 16.4077 18.0352C16.7821 18.0105 17.1454 17.8952 17.4657 17.6984C17.7859 17.5016 18.0536 17.2291 18.2438 16.9037C18.4342 16.5782 18.5406 16.2105 18.553 15.8334C18.5654 15.4563 18.4833 15.0824 18.3146 14.745C18.3048 14.7254 18.2943 14.706 18.2832 14.687L12.877 5.43317Z" fill="white"/>
</svg>
