<svg width="80" height="80" viewBox="0 0 80 80" fill="none" xmlns="http://www.w3.org/2000/svg">
<g clip-path="url(#clip0_0_358)">
<mask id="mask0_0_358" style="mask-type:luminance" maskUnits="userSpaceOnUse" x="0" y="0" width="80" height="80">
<path d="M80 0H0V80H80V0Z" fill="white"/>
</mask>
<g mask="url(#mask0_0_358)">
<mask id="mask1_0_358" style="mask-type:luminance" maskUnits="userSpaceOnUse" x="-3" y="-9" width="84" height="84">
<path d="M80.1055 -8.38745H-2.29453V74.0126H80.1055V-8.38745Z" fill="white"/>
</mask>
<g mask="url(#mask1_0_358)">
<path d="M10.4559 39.4369L11.7241 41.1589L13.3721 38.6866L15.4178 41.5336L19.0395 37.0103L24.3059 42.4425L34.335 40.4313L42.6011 42.4425L47.5548 39.7264L56.9789 41.3538L62.6863 38.2033L65.7453 40.4313L68.3221 39.5149C68.3221 39.5149 69.1868 50.0876 60.6104 54.5019C52.034 58.9161 10.9158 59.3292 10.4559 39.4369Z" fill="#967439"/>
<path d="M10.4559 39.4369L11.7241 41.1589L13.372 38.6866L15.4178 41.5336L19.0395 37.0103L24.3059 42.4425L34.335 40.4313L42.6011 42.4425L47.5548 39.7264L56.9789 41.3538L62.6863 38.2033L65.7453 40.4313L68.3221 39.5149C68.3221 39.5149 69.1868 50.0876 60.6104 54.5019C52.034 58.9161 10.9158 59.3292 10.4559 39.4369Z" stroke="#68502C" stroke-width="0.640523" stroke-linecap="round" stroke-linejoin="round"/>
<path d="M51.3556 31.9652C51.3556 31.9652 54.1385 28.713 59.0153 29.9187C65.9607 31.6356 70.8748 37.4398 70.527 39.306C70.2216 40.9449 62.803 39.0609 57.5969 40.9715C52.3908 42.8823 47.9892 35.1622 51.3556 31.9652Z" fill="#FFAA12"/>
<path d="M52.0126 39.3663C51.1554 37.6384 51.1138 35.5947 52.4331 34.3418C52.4331 34.3418 54.8711 31.4914 59.1456 32.5479C64.4489 33.8591 68.4016 37.8904 69.1277 39.987C69.9368 39.9025 70.4515 39.7126 70.5271 39.306C70.8754 37.4398 65.9608 31.6349 59.0161 29.9176C54.1389 28.7124 51.355 31.9645 51.355 31.9645C49.3928 33.8296 50.0714 37.2341 52.0126 39.3663Z" fill="#FBCA1D"/>
<path d="M62.5087 32.8159C62.5087 32.8159 58.2309 30.3734 55.0837 31.6416" stroke="#FDE63B" stroke-width="0.885156" stroke-linecap="round" stroke-linejoin="round"/>
<path d="M51.3556 31.9652C51.3556 31.9652 54.1385 28.713 59.0153 29.9187C65.9607 31.6356 70.8748 37.4398 70.527 39.306C70.2216 40.9449 62.803 39.0609 57.5969 40.9715C52.3908 42.8823 47.9892 35.1622 51.3556 31.9652Z" stroke="#CE7500" stroke-width="0.64375" stroke-miterlimit="10"/>
<path d="M23.7467 29.2452C23.7467 29.2452 20.493 26.464 15.8622 28.4115C9.26741 31.1852 5.31305 37.6815 5.94627 39.4712C6.50231 41.0429 13.5388 38.0309 18.9783 39.1109C24.4177 40.1908 27.5683 31.8813 23.7467 29.2452Z" fill="#FFAA12"/>
<path d="M24.2463 36.6583C24.825 34.8184 24.5491 32.7931 23.0513 31.7602C23.0513 31.7602 20.2009 29.3224 16.1418 31.0292C11.1061 33.1473 7.82663 37.7429 7.43465 39.9268C6.62223 39.9688 6.08436 39.8612 5.94656 39.4711C5.31287 37.6817 9.26765 31.1845 15.8618 28.4106C20.4929 26.4634 23.7476 29.2443 23.7476 29.2443C25.9754 30.7825 25.8332 34.2509 24.2463 36.6583Z" fill="#FBCA1D"/>
<path d="M17.4961 29.5933C17.4961 29.5933 13.6544 30.4247 10.382 34.0931" stroke="#FDE63B" stroke-width="0.885156" stroke-linecap="round" stroke-linejoin="round"/>
<path d="M23.9761 29.4901C23.9761 29.4901 20.7224 26.7088 16.0916 28.6563C9.49678 31.4301 5.54243 37.9264 6.17564 39.716C6.73168 41.2877 13.7682 38.2758 19.2076 39.3557C24.6471 40.4357 27.7977 32.1262 23.9761 29.4901Z" stroke="#CE7500" stroke-width="0.64375" stroke-miterlimit="10"/>
<path d="M18.2841 47.0859C18.2841 55.0423 27.1038 62.7662 37.9835 62.7662C48.8632 62.7662 57.6829 55.0423 57.6829 47.0859C57.6829 36.2168 51.0601 23.5061 37.9835 23.5061C25.071 23.5061 18.2841 36.3776 18.2841 47.0859Z" fill="#FBCA1D"/>
<path d="M23.9576 37.6442C23.9576 41.7342 29.8037 44.5689 37.9835 44.5689C46.1631 44.5689 52.009 41.7342 52.009 37.6442C52.009 33.0471 45.7078 28.8682 37.9835 28.8682C30.2702 28.8682 23.9576 32.8678 23.9576 37.6442Z" fill="#FBDF39"/>
<path d="M23.4746 31.0338C25.3964 34.9428 30.7891 38.3579 37.9764 38.3579C45.2116 38.3579 51.2338 35.7031 53.1125 31.7556C48.9909 25.7681 44.6105 25.7681 37.9764 25.7681C31.4074 25.7681 27.4881 26.9711 23.4746 31.0338Z" fill="#FFA912"/>
<path d="M18.2836 47.0852C18.2836 55.0416 27.1033 62.7655 37.983 62.7655C48.8627 62.7655 57.6824 55.0416 57.6824 47.0852C57.6824 36.2161 51.0596 23.5056 37.983 23.5056C25.0705 23.5056 18.2836 36.3769 18.2836 47.0852Z" stroke="#CE7500" stroke-width="0.64375" stroke-miterlimit="10"/>
<path d="M24.141 23.2668C23.5237 29.3973 29.5877 35.3931 37.7302 36.2129C45.8727 37.0329 53.0104 32.3662 53.6277 26.2357C54.471 17.8611 50.44 8.16955 40.6531 7.18398C30.9894 6.21097 24.9718 15.016 24.141 23.2668Z" fill="#FBCA1D"/>
<path d="M26.8462 21.2975C26.4193 25.5368 32.1579 29.182 38.6127 29.9487C46.7957 30.9205 51.1176 27.8246 51.5445 23.5853C52.1276 17.7944 48.2965 9.58421 40.5231 8.8015C32.8473 8.02863 27.4208 15.5921 26.8462 21.2975Z" fill="#FDE63B"/>
<path d="M30.6246 14.262C30.3606 16.8831 34.3208 19.4283 39.4696 19.9468C44.6186 20.4652 49.0067 18.7607 49.2705 16.1395C49.5345 13.5183 45.6632 9.36406 40.5115 8.87459C35.2038 8.37015 30.8885 11.6408 30.6246 14.262Z" fill="#FCFC9D"/>
<path d="M26.7454 30.6196C24.901 28.6738 23.9096 25.5653 24.1411 23.2673C24.9719 15.0165 30.9894 6.21148 40.6532 7.18449C50.4399 8.17 54.4708 17.8617 53.6276 26.2363C53.4113 28.3846 52.3944 30.353 50.8142 31.9686C50.8142 31.9686 50.6098 32.1856 50.2513 32.5084" stroke="#CE7500" stroke-width="0.64375" stroke-linecap="round" stroke-linejoin="round"/>
<path d="M29.4621 22.2114C29.2782 24.0384 30.2517 25.6327 31.6366 25.7721C33.0213 25.9116 34.2933 24.5435 34.4772 22.7165C34.6612 20.8895 33.6878 19.2953 32.3029 19.1559C30.918 19.0164 29.6461 20.3843 29.4621 22.2114Z" fill="#111111"/>
<path d="M30.1285 23.0121C30.0617 23.6748 30.6667 25.0285 31.6993 25.1325C32.7319 25.2364 33.5945 24.0307 33.6612 23.3681C33.7683 22.3049 32.9335 23.2333 31.9009 23.1294C30.8683 23.0254 30.2403 21.9008 30.1285 23.0121Z" fill="#474848"/>
<path d="M30.7543 20.6924C30.7005 21.226 31.3605 20.8615 32.1214 20.938C32.8822 21.0146 33.4546 21.5153 33.5096 20.9698C33.5438 20.6299 32.9942 19.8991 32.2334 19.8225C31.4726 19.7459 30.7886 20.3527 30.7543 20.6924Z" fill="#F5F5F5"/>
<path d="M42.3359 23.508C42.1519 25.335 43.1256 26.9293 44.5105 27.0687C45.8952 27.2082 47.1672 25.8401 47.3511 24.0132C47.5351 22.1861 46.5614 20.5918 45.1765 20.4524C43.7916 20.3129 42.5198 21.6809 42.3359 23.508Z" fill="#111111"/>
<path d="M43.0037 24.3085C42.937 24.9712 43.542 26.3249 44.5746 26.4289C45.6072 26.5328 46.4697 25.3271 46.5364 24.6645C46.6435 23.6013 45.8089 24.5298 44.7763 24.4258C43.7437 24.3218 43.1155 23.1972 43.0037 24.3085Z" fill="#474848"/>
<path d="M43.6302 21.9882C43.5764 22.5218 44.2364 22.1573 44.9972 22.2339C45.758 22.3105 46.3306 22.8112 46.3856 22.2657C46.4197 21.9258 45.8701 21.1949 45.1092 21.1183C44.3484 21.0417 43.6644 21.6485 43.6302 21.9882Z" fill="#F5F5F5"/>
<path d="M40.5848 26.5589C40.5848 26.5589 41.1032 28.0507 40.4236 29.9996C39.8329 31.6935 38.3611 34.485 36.1577 34.0515C33.2204 33.4738 33.2264 29.0823 36.1745 25.179L40.5848 26.5589Z" fill="#FBCA1D"/>
<path d="M34.9713 27.8071C34.8663 28.7261 35.0409 30.6075 35.5225 31.4157C35.9653 32.1589 36.5536 33.1844 37.1018 33.2319C37.6161 33.2763 38.316 32.9036 39.3389 31.6151C39.9669 30.8241 40.4657 29.2721 40.5767 28.3011C40.7783 26.5385 39.617 24.2991 38.1221 24.1699C36.7502 24.0514 35.4127 25.7287 35.047 27.3687C35.0137 27.5156 34.988 27.6617 34.9713 27.8071Z" fill="#943903"/>
<path d="M35.1932 27.399C37.1272 28.0375 38.6224 27.5417 39.1202 27.3838C39.0736 27.788 40.942 27.3785 40.3772 28.5249C39.8125 29.6714 38.166 31.2613 37.7054 31.8593C37.2835 32.4071 37.0773 32.3289 36.8561 31.755C36.7331 31.4358 34.89 27.9528 35.1932 27.399Z" fill="#9B0B0B"/>
<path d="M35.1932 27.399C37.1272 28.0375 38.6224 27.5417 39.1202 27.3838C39.0736 27.788 40.942 27.3785 40.3772 28.5249C39.8125 29.6714 38.166 31.2613 37.7054 31.8593C37.2835 32.4071 37.0773 32.3289 36.8561 31.755C36.7331 31.4358 34.89 27.9528 35.1932 27.399Z" stroke="#CE7500" stroke-width="0.241406"/>
<path d="M35.3348 28.0263L37.5055 28.5308C37.7933 28.61 37.9885 28.6228 38.3439 28.6154L40.412 28.5392C40.6496 28.3229 40.7828 28.027 40.7747 27.718C40.7318 26.0518 39.7256 24.1918 38.3006 24.0483C36.8578 23.9029 35.4852 25.5669 35.132 27.2118C35.0862 27.4948 35.1586 27.7853 35.3348 28.0263Z" fill="#F78D15"/>
<path d="M37.0048 24.372C37.3673 26.1106 37.6346 26.773 37.5166 28.5155L37.5178 28.5184C37.725 28.5791 38.0456 28.6263 38.3542 28.5997C38.889 26.7479 39.0488 26.2806 39.5219 24.6268C39.1723 24.2964 38.7626 24.0788 38.3103 24.0332C37.858 23.9877 37.4146 24.1193 37.0048 24.372Z" fill="#F1B623"/>
<path d="M10.3509 39.2155C10.3509 59.8107 23.6073 72.1997 39.5627 72.1997C55.4199 72.1997 68.6103 59.9636 68.7712 39.5953L65.4237 42.8302L63.4378 40.355L61.4502 44.5763L59.0522 47.4732L55.988 43.5335L54.8035 44.5763L50.7253 41.1838L48.0425 40.6044L46.5055 43.5335V46.7281L43.6553 44.99L41.6694 46.8118L41.0063 49.1293L35.5441 42.4166L32.2416 44.3623C32.2416 44.3623 31.82 41.0132 29.6683 38.2837L24.1223 40.1892L22.6321 44.1627L19.2395 46.8938L17.3469 41.9273L15.5975 43.1842L14.6866 46.2324L10.3509 39.2155Z" fill="#EBE9E0"/>
<path d="M10.3509 39.2156C10.3509 59.8107 23.6073 72.1997 39.5627 72.1997C55.4199 72.1997 68.6103 59.9636 68.7712 39.5954L67.1281 41.4945C65.4897 59.4502 53.4548 69.4493 39.5627 69.4493C25.9538 69.4493 14.112 59.8783 12.1084 42.5808L10.3509 39.2156Z" fill="#FBF5E6"/>
<g opacity="0.32">
<path d="M10.3506 39.2156C10.3506 59.8107 23.607 72.1997 39.5624 72.1997C55.4699 72.1997 66.5679 60.3161 68.4169 44.4444C64.1456 54.3855 55.183 60.0393 44.9876 60.0393C34.9387 60.0393 26.0887 54.5481 21.7466 44.8757L19.2392 46.8939L17.3466 41.9274L15.5972 43.1843L14.6863 46.2325L10.3506 39.2156Z" fill="#B7B49E"/>
</g>
<path d="M28.7589 41.2976C30.9686 44.0271 31.3661 47.7125 31.3661 47.7125L35.1143 45.4996L41.6484 53.1345L42.7734 49.3042L44.1606 48.0441L47.9604 50.0059V45.0732L49.0805 43.3656L50.8701 44.1059L50.7269 41.988L48.0441 41.4086L46.5071 44.3377V47.5323L43.6569 45.7942L41.6709 47.616L41.0079 49.9335L35.5457 43.2208L32.2432 45.1665C32.2432 45.1665 31.8216 41.8174 29.6698 39.0879L28.7589 41.2976Z" fill="#FBF5E6"/>
<path d="M10.3509 40.0205C10.3509 41.2468 10.3976 42.4442 10.4909 43.611L14.009 49.1553L15.6796 48.5823L16.7418 45.333L18.6859 50.2995L23.5446 46.8716L25.0751 42.898L28.7573 41.2983C30.967 44.0278 31.3645 47.7133 31.3645 47.7133L35.1128 45.5004L41.6468 53.1352L42.7718 49.3049L44.1591 48.0448L47.9588 50.0066V45.0739L49.0789 43.3663L50.8686 44.1067L54.7359 47.3383L55.7916 46.4563L58.9396 50.3961L62.3691 46.6945L63.7661 43.7606L65.2902 45.7724L68.6876 42.8513C68.7358 42.0483 68.7648 41.2307 68.7712 40.4003L65.4237 43.6351L63.4378 41.1599L61.4502 45.3813L59.0522 48.2782L55.988 44.3384L54.8035 45.3813L50.7253 41.9887L48.0425 41.4093L46.5055 44.3384V47.533L43.6553 45.7949L41.6694 47.6167L41.0063 49.9342L35.5441 43.2215L32.2416 45.1672C32.2416 45.1672 31.82 41.8181 29.6683 39.0886L24.1223 40.9941L22.6321 44.9677L19.2395 47.6988L17.3469 42.7322L15.5975 43.9892L14.6866 47.0373L10.3509 40.0205Z" fill="#FBF5E6"/>
<path d="M10.3509 39.2156C10.3509 59.8103 23.6071 72.5211 39.5626 72.5211C55.518 72.5211 68.7744 59.8103 68.7744 39.2156" stroke="#B7B49E" stroke-width="0.64375" stroke-linecap="round" stroke-linejoin="round"/>
<path d="M68.7335 39.0148C68.7335 39.1424 65.3833 42.6292 65.3833 42.6292L63.3973 40.154L61.4097 44.3754L59.0118 47.2723L55.9475 43.3325L54.763 44.3754L50.6849 40.9829L48.002 40.4035L46.4651 43.3325V46.5272L43.6149 44.789L41.6289 46.6108L40.9658 48.9283L35.5038 42.2156L32.2014 44.1614C32.2014 44.1614 31.7797 40.8123 29.6278 38.0828L24.0819 39.9883L22.5916 43.9618L19.1992 46.6929L17.3064 41.7264L15.557 42.9833L14.6461 46.0315L10.3103 39.0143" stroke="#B7B49E" stroke-width="0.64375" stroke-linecap="round" stroke-linejoin="round"/>
<path d="M40.1518 49.0044L42.4463 53.8998L44.6241 54.6739L46.7565 56.5629L46.6213 57.5556L45.7595 57.709L43.9271 55.7119L42.9757 55.2549L42.5016 57.3245L41.5963 58.424L40.6929 58.777L40.6835 57.3971L41.2867 56.133L41.5109 54.235L39.1134 49.284L40.1518 49.0044Z" fill="#FCF5E6"/>
<path d="M41.2464 48.4854L43.1324 53.5747L42.1703 56.6869L41.4108 57.68" stroke="#B7B49E" stroke-width="0.502097" stroke-linecap="round" stroke-linejoin="round"/>
<path d="M40.3102 48.2341L42.6388 53.4844L42.1713 56.6871L41.5109 57.6984" stroke="#B7B49E" stroke-width="0.502097" stroke-linecap="round" stroke-linejoin="round"/>
<path d="M43.1338 53.5745L44.9578 54.3162L46.5005 56.1466" stroke="#B7B49E" stroke-width="0.412" stroke-linecap="round" stroke-linejoin="round"/>
<path d="M43.2062 53.179L45.0302 53.9206L46.5005 56.1468" stroke="#B7B49E" stroke-width="0.412" stroke-linecap="round" stroke-linejoin="round"/>
</g>
</g>
</g>
<defs>
<clipPath id="clip0_0_358">
<rect width="80" height="80" fill="white"/>
</clipPath>
</defs>
</svg>
